{"title":"Shrooms 2007 DVDRip BigPerm LKRG","uid":5637031,"size":660481297,"categoryP":"video","categoryS":"movies","magnet":"?xt=urn:btih:af7f1c8b2cb93f7dbf0a25b2c78bd519fb0d02b9&amp;dn=Shrooms+2007+DVDRip+BigPerm+LKRG&amp;tr=udp%3A%2F%2Ftracker.openbittorrent.com%3A80&amp;tr=udp%3A%2F%2Fopen.demonii.com%3A1337&amp;tr=udp%3A%2F%2Ftracker.coppersurfer.tk%3A6969&amp;tr=udp%3A%2F%2Fexodus.desync.com%3A6969","seeders":2,"leechers":0,"uploader":"neon","files":-1,"time":1276931998,"description":" &lt;a href=&quot;http://img14.imageshack.us/img14/7824/wby3tjn8.png&quot; rel=&quot;nofollow&quot; target=&quot;_NEW&quot;&gt;http://img14.imageshack.us/img14/7824/wby3tjn8.png&lt;/a&gt; &lt;a href=&quot;\nhttp://img824.imageshack.us/img824/4967/2vuoyjxv.png&quot; rel=&quot;nofollow&quot; target=&quot;_NEW&quot;&gt;\nhttp://img824.imageshack.us/img824/4967/2vuoyjxv.png&lt;/a&gt; &lt;a href=&quot;\nhttp://img194.imageshack.us/img194/5453/7vqmhgaa.png&quot; rel=&quot;nofollow&quot; target=&quot;_NEW&quot;&gt;\nhttp://img194.imageshack.us/img194/5453/7vqmhgaa.png&lt;/a&gt; &lt;a href=&quot;\nhttp://img31.imageshack.us/img31/1861/df22peo5.png&quot; rel=&quot;nofollow&quot; target=&quot;_NEW&quot;&gt;\nhttp://img31.imageshack.us/img31/1861/df22peo5.png&lt;/a&gt; &lt;a href=&quot;\nhttp://img35.imageshack.us/img35/6229/udz74q8t.png&quot; rel=&quot;nofollow&quot; target=&quot;_NEW&quot;&gt;\nhttp://img35.imageshack.us/img35/6229/udz74q8t.png&lt;/a&gt;\n\n\nLindsey Haun..................Tara\nJack Huston...................Jake\nMax Kasch.....................Troy\nMaya Hazen....................Lisa\nAlice Greczyn.................Holly\nRobert Hoffman................Bluto\nDon Wycherley.................Ernie\nSean McGinley.................Bernie\nToby Sedgwick.................Black Brother\nAndre Pollack.................The Dog\nJack Gleeson..................Lonely Twin\nMike Carbery..................Paramedic\nAnna Tikhonova................Mysterious Woman 1\nGoranna McDonald..............Mysterious WOman 2\nBerry Murphy..................Lonely Twin's Brother\n &lt;a href=&quot;\nhttp://www.imdb.com/title/tt0492486/&quot; rel=&quot;nofollow&quot; target=&quot;_NEW&quot;&gt;\nhttp://www.imdb.com/title/tt0492486/&lt;/a&gt;\n\nShrooms is a 2007  horror film about a group of American  students and their Irish guide who are stalked by a serial killer while out in the woods looking for Psychedelic mushrooms\n\n\nFormat : MPEG-4\nFormat profile : Base Media / Version 2\nCodec ID : mp42\nFile size : 630 MiB\nDuration : 1h 24mn\nOverall bit rate : 1 044 Kbps\n\nID : 1\nFormat : AVC\nFormat/Info : Advanced Video Codec\nFormat profile : &lt;a class=&quot;__cf_email__&quot; href=&quot;/cdn-cgi/l/email-protection&quot; data-cfemail=&quot;81cce0e8efc1cdb2afb1&quot;&gt;[email&amp;#160;protected]&lt;/a&gt;&lt;script cf-hash='f9e31' type=&quot;text/javascript&quot;&gt;\n/* &lt;![CDATA[ */!function(){try{var t=&quot;currentScript&quot;in document?document.currentScript:function(){for(var t=document.getElementsByTagName(&quot;script&quot;),e=t.length;e--;)if(t[e].getAttribute(&quot;cf-hash&quot;))return t[e]}();if(t&amp;&amp;t.previousSibling){var e,r,n,i,c=t.previousSibling,a=c.getAttribute(&quot;data-cfemail&quot;);if(a){for(e=&quot;&quot;,r=parseInt(a.substr(0,2),16),n=2;a.length-n;n+=2)i=parseInt(a.substr(n,2),16)^r,e+=String.fromCharCode(i);e=document.createTextNode(e),c.parentNode.replaceChild(e,c)}}}catch(u){}}();/* ]]&gt; */&lt;/script&gt;\nFormat settings, CABAC : Yes\nFormat settings, ReFrames : 2 frames\nCodec ID : avc1\nCodec ID/Info : Advanced Video Coding\nDuration : 1h 24mn\nBit rate mode : Variable\nBit rate : 879 Kbps\nWidth : 720 pixels\nHeight : 370 pixels\nDisplay aspect ratio : 2.35:1\nFrame rate mode : Variable\nFrame rate : 23.976 fps\nMinimum frame rate : 11.989 fps\nMaximum frame rate : 29.970 fps\nResolution : 8 bits\nColorimetry : 4:2:0\nScan type : Progressive\nBits/(Pixel*Frame) : 0.138\nStream size : 530 MiB (84%)\nWriting library : x264 core 79\n\nAudio:\n\nID : 2\nFormat : AAC\nFormat/Info : Advanced Audio Codec\nFormat version : Version 4\nFormat profile : LC\nFormat settings, SBR : No\nCodec ID : 40\nDuration : 1h 24mn\nBit rate mode : Variable\nBit rate : 160 Kbps\nMaximum bit rate : 240 Kbps\nChannel(s) : 2 channels\nChannel positions : Front: L R\nSampling rate : 48.0 KHz\nStream size : 96.5 MiB (15%)\nLanguage : English\n\nencoded by bigperm &lt;a href=&quot;\nhttp://img441.imageshack.us/img441/5863/547pdk.gif&quot; rel=&quot;nofollow&quot; target=&quot;_NEW&quot;&gt;\nhttp://img441.imageshack.us/img441/5863/547pdk.gif&lt;/a&gt;","torrent":{"xt":"urn:btih:af7f1c8b2cb93f7dbf0a25b2c78bd519fb0d02b9","amp;dn":"Shrooms+2007+DVDRip+BigPerm+LKRG","amp;tr":["udp%3A%2F%2Ftracker.openbittorrent.com%3A80","udp%3A%2F%2Fopen.demonii.com%3A1337","udp%3A%2F%2Ftracker.coppersurfer.tk%3A6969","udp%3A%2F%2Fexodus.desync.com%3A6969"],"infoHash":"af7f1c8b2cb93f7dbf0a25b2c78bd519fb0d02b9","infoHashBuffer":{"type":"Buffer","data":[175,127,28,139,44,185,63,125,191,10,37,178,199,139,213,25,251,13,2,185]},"announce":[],"urlList":[]}}